<?xml version="1.0" encoding="UTF-8" standalone="no"?>
<!DOCTYPE svg PUBLIC "-//W3C//DTD SVG 1.1//EN"
 "http://www.w3.org/Graphics/SVG/1.1/DTD/svg11.dtd">
<!-- Generated by graphviz version 2.43.0 (0)
 -->
<!-- Title: %3 Pages: 1 -->
<svg width="2002pt" height="548pt"
 viewBox="0.00 0.00 2001.97 548.00" xmlns="http://www.w3.org/2000/svg" xmlns:xlink="http://www.w3.org/1999/xlink">
<g id="graph0" class="graph" transform="scale(1 1) rotate(0) translate(4 544)">
<title>%3</title>
<polygon fill="white" stroke="transparent" points="-4,4 -4,-544 1997.97,-544 1997.97,4 -4,4"/>
<!-- [root] azurerm_container_registry.acr (expand) -->
<g id="node1" class="node">
<title>[root] azurerm_container_registry.acr (expand)</title>
<polygon fill="none" stroke="black" points="621.18,-396 382.18,-396 382.18,-360 621.18,-360 621.18,-396"/>
<text text-anchor="middle" x="501.68" y="-374.3" font-family="Times,serif" font-size="14.00">azurerm_container_registry.acr</text>
</g>
<!-- [root] azurerm_resource_group.rg (expand) -->
<g id="node8" class="node">
<title>[root] azurerm_resource_group.rg (expand)</title>
<polygon fill="none" stroke="black" points="1278.18,-108 1063.18,-108 1063.18,-72 1278.18,-72 1278.18,-108"/>
<text text-anchor="middle" x="1170.68" y="-86.3" font-family="Times,serif" font-size="14.00">azurerm_resource_group.rg</text>
</g>
<!-- [root] azurerm_container_registry.acr (expand)&#45;&gt;[root] azurerm_resource_group.rg (expand) -->
<g id="edge1" class="edge">
<title>[root] azurerm_container_registry.acr (expand)&#45;&gt;[root] azurerm_resource_group.rg (expand)</title>
<path fill="none" stroke="black" d="M483.38,-359.73C465.64,-340.86 443.69,-310.34 460.68,-288 532.24,-193.88 870.64,-132.97 1053.22,-106.38"/>
<polygon fill="black" stroke="black" points="1053.74,-109.84 1063.13,-104.95 1052.74,-102.92 1053.74,-109.84"/>
</g>
<!-- [root] var.container_registry -->
<g id="node13" class="node">
<title>[root] var.container_registry</title>
<polygon fill="none" stroke="black" points="637.68,-324 469.68,-324 469.68,-288 643.68,-288 643.68,-318 637.68,-324"/>
<polyline fill="none" stroke="black" points="637.68,-324 637.68,-318 "/>
<polyline fill="none" stroke="black" points="643.68,-318 637.68,-318 "/>
<text text-anchor="middle" x="556.68" y="-302.3" font-family="Times,serif" font-size="14.00">var.container_registry</text>
</g>
<!-- [root] azurerm_container_registry.acr (expand)&#45;&gt;[root] var.container_registry -->
<g id="edge2" class="edge">
<title>[root] azurerm_container_registry.acr (expand)&#45;&gt;[root] var.container_registry</title>
<path fill="none" stroke="black" d="M515.28,-359.7C521.81,-351.39 529.75,-341.28 536.93,-332.14"/>
<polygon fill="black" stroke="black" points="539.82,-334.13 543.24,-324.1 534.31,-329.81 539.82,-334.13"/>
</g>
<!-- [root] azurerm_kubernetes_cluster.aks&#45;cp2 (expand) -->
<g id="node2" class="node">
<title>[root] azurerm_kubernetes_cluster.aks&#45;cp2 (expand)</title>
<polygon fill="none" stroke="black" points="364.18,-396 87.18,-396 87.18,-360 364.18,-360 364.18,-396"/>
<text text-anchor="middle" x="225.68" y="-374.3" font-family="Times,serif" font-size="14.00">azurerm_kubernetes_cluster.aks&#45;cp2</text>
</g>
<!-- [root] azurerm_kubernetes_cluster.aks&#45;cp2 (expand)&#45;&gt;[root] azurerm_resource_group.rg (expand) -->
<g id="edge3" class="edge">
<title>[root] azurerm_kubernetes_cluster.aks&#45;cp2 (expand)&#45;&gt;[root] azurerm_resource_group.rg (expand)</title>
<path fill="none" stroke="black" d="M258.14,-359.99C277.34,-349.8 302.05,-336.44 323.68,-324 403.57,-278.07 418.09,-256.87 500.68,-216 579.76,-176.87 599.98,-164.97 685.68,-144 808.78,-113.88 953.64,-100.86 1052.79,-95.25"/>
<polygon fill="black" stroke="black" points="1053.05,-98.74 1062.84,-94.69 1052.67,-91.75 1053.05,-98.74"/>
</g>
<!-- [root] var.kubernetes_cluster -->
<g id="node14" class="node">
<title>[root] var.kubernetes_cluster</title>
<polygon fill="none" stroke="black" points="309.18,-324 136.18,-324 136.18,-288 315.18,-288 315.18,-318 309.18,-324"/>
<polyline fill="none" stroke="black" points="309.18,-324 309.18,-318 "/>
<polyline fill="none" stroke="black" points="315.18,-318 309.18,-318 "/>
<text text-anchor="middle" x="225.68" y="-302.3" font-family="Times,serif" font-size="14.00">var.kubernetes_cluster</text>
</g>
<!-- [root] azurerm_kubernetes_cluster.aks&#45;cp2 (expand)&#45;&gt;[root] var.kubernetes_cluster -->
<g id="edge4" class="edge">
<title>[root] azurerm_kubernetes_cluster.aks&#45;cp2 (expand)&#45;&gt;[root] var.kubernetes_cluster</title>
<path fill="none" stroke="black" d="M225.68,-359.7C225.68,-351.98 225.68,-342.71 225.68,-334.11"/>
<polygon fill="black" stroke="black" points="229.18,-334.1 225.68,-324.1 222.18,-334.1 229.18,-334.1"/>
</g>
<!-- [root] azurerm_linux_virtual_machine.vm (expand) -->
<g id="node3" class="node">
<title>[root] azurerm_linux_virtual_machine.vm (expand)</title>
<polygon fill="none" stroke="black" points="1713.68,-396 1447.68,-396 1447.68,-360 1713.68,-360 1713.68,-396"/>
<text text-anchor="middle" x="1580.68" y="-374.3" font-family="Times,serif" font-size="14.00">azurerm_linux_virtual_machine.vm</text>
</g>
<!-- [root] azurerm_network_interface.nic (expand) -->
<g id="node4" class="node">
<title>[root] azurerm_network_interface.nic (expand)</title>
<polygon fill="none" stroke="black" points="1791.68,-324 1553.68,-324 1553.68,-288 1791.68,-288 1791.68,-324"/>
<text text-anchor="middle" x="1672.68" y="-302.3" font-family="Times,serif" font-size="14.00">azurerm_network_interface.nic</text>
</g>
<!-- [root] azurerm_linux_virtual_machine.vm (expand)&#45;&gt;[root] azurerm_network_interface.nic (expand) -->
<g id="edge5" class="edge">
<title>[root] azurerm_linux_virtual_machine.vm (expand)&#45;&gt;[root] azurerm_network_interface.nic (expand)</title>
<path fill="none" stroke="black" d="M1603.42,-359.7C1615.12,-350.8 1629.54,-339.82 1642.19,-330.2"/>
<polygon fill="black" stroke="black" points="1644.36,-332.94 1650.2,-324.1 1640.13,-327.37 1644.36,-332.94"/>
</g>
<!-- [root] azurerm_public_ip.pip (expand) -->
<g id="node7" class="node">
<title>[root] azurerm_public_ip.pip (expand)</title>
<polygon fill="none" stroke="black" points="1939.68,-252 1765.68,-252 1765.68,-216 1939.68,-216 1939.68,-252"/>
<text text-anchor="middle" x="1852.68" y="-230.3" font-family="Times,serif" font-size="14.00">azurerm_public_ip.pip</text>
</g>
<!-- [root] azurerm_network_interface.nic (expand)&#45;&gt;[root] azurerm_public_ip.pip (expand) -->
<g id="edge6" class="edge">
<title>[root] azurerm_network_interface.nic (expand)&#45;&gt;[root] azurerm_public_ip.pip (expand)</title>
<path fill="none" stroke="black" d="M1716.72,-287.88C1741.65,-278.18 1773.02,-265.98 1799.34,-255.74"/>
<polygon fill="black" stroke="black" points="1800.74,-258.95 1808.79,-252.07 1798.2,-252.43 1800.74,-258.95"/>
</g>
<!-- [root] azurerm_subnet.subnet (expand) -->
<g id="node9" class="node">
<title>[root] azurerm_subnet.subnet (expand)</title>
<polygon fill="none" stroke="black" points="1635.18,-252 1450.18,-252 1450.18,-216 1635.18,-216 1635.18,-252"/>
<text text-anchor="middle" x="1542.68" y="-230.3" font-family="Times,serif" font-size="14.00">azurerm_subnet.subnet</text>
</g>
<!-- [root] azurerm_network_interface.nic (expand)&#45;&gt;[root] azurerm_subnet.subnet (expand) -->
<g id="edge7" class="edge">
<title>[root] azurerm_network_interface.nic (expand)&#45;&gt;[root] azurerm_subnet.subnet (expand)</title>
<path fill="none" stroke="black" d="M1640.88,-287.88C1623.57,-278.55 1601.96,-266.92 1583.43,-256.94"/>
<polygon fill="black" stroke="black" points="1585.07,-253.85 1574.61,-252.19 1581.75,-260.01 1585.07,-253.85"/>
</g>
<!-- [root] var.vm_nic -->
<g id="node20" class="node">
<title>[root] var.vm_nic</title>
<polygon fill="none" stroke="black" points="1739.68,-252 1653.68,-252 1653.68,-216 1745.68,-216 1745.68,-246 1739.68,-252"/>
<polyline fill="none" stroke="black" points="1739.68,-252 1739.68,-246 "/>
<polyline fill="none" stroke="black" points="1745.68,-246 1739.68,-246 "/>
<text text-anchor="middle" x="1699.68" y="-230.3" font-family="Times,serif" font-size="14.00">var.vm_nic</text>
</g>
<!-- [root] azurerm_network_interface.nic (expand)&#45;&gt;[root] var.vm_nic -->
<g id="edge8" class="edge">
<title>[root] azurerm_network_interface.nic (expand)&#45;&gt;[root] var.vm_nic</title>
<path fill="none" stroke="black" d="M1679.36,-287.7C1682.4,-279.81 1686.07,-270.3 1689.44,-261.55"/>
<polygon fill="black" stroke="black" points="1692.75,-262.69 1693.09,-252.1 1686.22,-260.17 1692.75,-262.69"/>
</g>
<!-- [root] azurerm_network_security_group.nsg1 (expand) -->
<g id="node5" class="node">
<title>[root] azurerm_network_security_group.nsg1 (expand)</title>
<polygon fill="none" stroke="black" points="1203.68,-324 909.68,-324 909.68,-288 1203.68,-288 1203.68,-324"/>
<text text-anchor="middle" x="1056.68" y="-302.3" font-family="Times,serif" font-size="14.00">azurerm_network_security_group.nsg1</text>
</g>
<!-- [root] azurerm_network_security_group.nsg1 (expand)&#45;&gt;[root] azurerm_resource_group.rg (expand) -->
<g id="edge9" class="edge">
<title>[root] azurerm_network_security_group.nsg1 (expand)&#45;&gt;[root] azurerm_resource_group.rg (expand)</title>
<path fill="none" stroke="black" d="M1053.8,-287.77C1049.51,-256.31 1044.85,-188.67 1074.68,-144 1083.49,-130.82 1096.72,-120.6 1110.57,-112.82"/>
<polygon fill="black" stroke="black" points="1112.47,-115.78 1119.72,-108.05 1109.23,-109.57 1112.47,-115.78"/>
</g>
<!-- [root] var.vm_network_security_group -->
<g id="node18" class="node">
<title>[root] var.vm_network_security_group</title>
<polygon fill="none" stroke="black" points="1021.18,-252 784.18,-252 784.18,-216 1027.18,-216 1027.18,-246 1021.18,-252"/>
<polyline fill="none" stroke="black" points="1021.18,-252 1021.18,-246 "/>
<polyline fill="none" stroke="black" points="1027.18,-246 1021.18,-246 "/>
<text text-anchor="middle" x="905.68" y="-230.3" font-family="Times,serif" font-size="14.00">var.vm_network_security_group</text>
</g>
<!-- [root] azurerm_network_security_group.nsg1 (expand)&#45;&gt;[root] var.vm_network_security_group -->
<g id="edge10" class="edge">
<title>[root] azurerm_network_security_group.nsg1 (expand)&#45;&gt;[root] var.vm_network_security_group</title>
<path fill="none" stroke="black" d="M1019.74,-287.88C999.19,-278.35 973.43,-266.41 951.59,-256.28"/>
<polygon fill="black" stroke="black" points="953.05,-253.1 942.5,-252.07 950.1,-259.45 953.05,-253.1"/>
</g>
<!-- [root] azurerm_network_security_rule.http (expand) -->
<g id="node6" class="node">
<title>[root] azurerm_network_security_rule.http (expand)</title>
<polygon fill="none" stroke="black" points="915.68,-396 639.68,-396 639.68,-360 915.68,-360 915.68,-396"/>
<text text-anchor="middle" x="777.68" y="-374.3" font-family="Times,serif" font-size="14.00">azurerm_network_security_rule.http</text>
</g>
<!-- [root] azurerm_network_security_rule.http (expand)&#45;&gt;[root] azurerm_network_security_group.nsg1 (expand) -->
<g id="edge11" class="edge">
<title>[root] azurerm_network_security_rule.http (expand)&#45;&gt;[root] azurerm_network_security_group.nsg1 (expand)</title>
<path fill="none" stroke="black" d="M845.58,-359.97C885.75,-349.89 936.78,-337.08 978.61,-326.59"/>
<polygon fill="black" stroke="black" points="979.64,-329.94 988.48,-324.11 977.93,-323.15 979.64,-329.94"/>
</g>
<!-- [root] var.vm_network_security_rule -->
<g id="node19" class="node">
<title>[root] var.vm_network_security_rule</title>
<polygon fill="none" stroke="black" points="885.68,-324 661.68,-324 661.68,-288 891.68,-288 891.68,-318 885.68,-324"/>
<polyline fill="none" stroke="black" points="885.68,-324 885.68,-318 "/>
<polyline fill="none" stroke="black" points="891.68,-318 885.68,-318 "/>
<text text-anchor="middle" x="776.68" y="-302.3" font-family="Times,serif" font-size="14.00">var.vm_network_security_rule</text>
</g>
<!-- [root] azurerm_network_security_rule.http (expand)&#45;&gt;[root] var.vm_network_security_rule -->
<g id="edge12" class="edge">
<title>[root] azurerm_network_security_rule.http (expand)&#45;&gt;[root] var.vm_network_security_rule</title>
<path fill="none" stroke="black" d="M777.44,-359.7C777.33,-351.98 777.19,-342.71 777.07,-334.11"/>
<polygon fill="black" stroke="black" points="780.57,-334.05 776.93,-324.1 773.57,-334.15 780.57,-334.05"/>
</g>
<!-- [root] azurerm_public_ip.pip (expand)&#45;&gt;[root] azurerm_resource_group.rg (expand) -->
<g id="edge13" class="edge">
<title>[root] azurerm_public_ip.pip (expand)&#45;&gt;[root] azurerm_resource_group.rg (expand)</title>
<path fill="none" stroke="black" d="M1765.59,-217.85C1761.91,-217.22 1758.26,-216.6 1754.68,-216 1656.98,-199.53 1623.45,-224.01 1534.68,-180 1513.84,-169.67 1517.53,-154.32 1496.68,-144 1432.3,-112.12 1352.84,-98.75 1288.5,-93.41"/>
<polygon fill="black" stroke="black" points="1288.54,-89.9 1278.3,-92.62 1288,-96.88 1288.54,-89.9"/>
</g>
<!-- [root] var.vm_instance -->
<g id="node16" class="node">
<title>[root] var.vm_instance</title>
<polygon fill="none" stroke="black" points="1919.18,-180 1794.18,-180 1794.18,-144 1925.18,-144 1925.18,-174 1919.18,-180"/>
<polyline fill="none" stroke="black" points="1919.18,-180 1919.18,-174 "/>
<polyline fill="none" stroke="black" points="1925.18,-174 1919.18,-174 "/>
<text text-anchor="middle" x="1859.68" y="-158.3" font-family="Times,serif" font-size="14.00">var.vm_instance</text>
</g>
<!-- [root] azurerm_public_ip.pip (expand)&#45;&gt;[root] var.vm_instance -->
<g id="edge14" class="edge">
<title>[root] azurerm_public_ip.pip (expand)&#45;&gt;[root] var.vm_instance</title>
<path fill="none" stroke="black" d="M1854.41,-215.7C1855.18,-207.98 1856.11,-198.71 1856.97,-190.11"/>
<polygon fill="black" stroke="black" points="1860.46,-190.4 1857.97,-180.1 1853.49,-189.71 1860.46,-190.4"/>
</g>
<!-- [root] provider[&quot;registry.terraform.io/hashicorp/azurerm&quot;] -->
<g id="node12" class="node">
<title>[root] provider[&quot;registry.terraform.io/hashicorp/azurerm&quot;]</title>
<polygon fill="none" stroke="black" points="945.68,-36 591.09,-18 945.68,0 1300.27,-18 945.68,-36"/>
<text text-anchor="middle" x="945.68" y="-14.3" font-family="Times,serif" font-size="14.00">provider[&quot;registry.terraform.io/hashicorp/azurerm&quot;]</text>
</g>
<!-- [root] azurerm_resource_group.rg (expand)&#45;&gt;[root] provider[&quot;registry.terraform.io/hashicorp/azurerm&quot;] -->
<g id="edge15" class="edge">
<title>[root] azurerm_resource_group.rg (expand)&#45;&gt;[root] provider[&quot;registry.terraform.io/hashicorp/azurerm&quot;]</title>
<path fill="none" stroke="black" d="M1115.93,-71.97C1081.45,-61.24 1037.04,-47.42 1002.22,-36.59"/>
<polygon fill="black" stroke="black" points="1003.26,-33.25 992.67,-33.62 1001.18,-39.93 1003.26,-33.25"/>
</g>
<!-- [root] var.resource_group -->
<g id="node15" class="node">
<title>[root] var.resource_group</title>
<polygon fill="none" stroke="black" points="1466.68,-36 1318.68,-36 1318.68,0 1472.68,0 1472.68,-30 1466.68,-36"/>
<polyline fill="none" stroke="black" points="1466.68,-36 1466.68,-30 "/>
<polyline fill="none" stroke="black" points="1472.68,-30 1466.68,-30 "/>
<text text-anchor="middle" x="1395.68" y="-14.3" font-family="Times,serif" font-size="14.00">var.resource_group</text>
</g>
<!-- [root] azurerm_resource_group.rg (expand)&#45;&gt;[root] var.resource_group -->
<g id="edge16" class="edge">
<title>[root] azurerm_resource_group.rg (expand)&#45;&gt;[root] var.resource_group</title>
<path fill="none" stroke="black" d="M1225.44,-71.97C1257.28,-62.06 1297.6,-49.51 1331.01,-39.12"/>
<polygon fill="black" stroke="black" points="1332.17,-42.42 1340.68,-36.11 1330.1,-35.74 1332.17,-42.42"/>
</g>
<!-- [root] azurerm_virtual_network.vnet (expand) -->
<g id="node11" class="node">
<title>[root] azurerm_virtual_network.vnet (expand)</title>
<polygon fill="none" stroke="black" points="1775.68,-180 1543.68,-180 1543.68,-144 1775.68,-144 1775.68,-180"/>
<text text-anchor="middle" x="1659.68" y="-158.3" font-family="Times,serif" font-size="14.00">azurerm_virtual_network.vnet</text>
</g>
<!-- [root] azurerm_subnet.subnet (expand)&#45;&gt;[root] azurerm_virtual_network.vnet (expand) -->
<g id="edge17" class="edge">
<title>[root] azurerm_subnet.subnet (expand)&#45;&gt;[root] azurerm_virtual_network.vnet (expand)</title>
<path fill="none" stroke="black" d="M1571.3,-215.88C1586.6,-206.72 1605.63,-195.34 1622.1,-185.48"/>
<polygon fill="black" stroke="black" points="1624.17,-188.33 1630.95,-180.19 1620.57,-182.32 1624.17,-188.33"/>
</g>
<!-- [root] azurerm_subnet_network_security_group_association.nsg&#45;link (expand) -->
<g id="node10" class="node">
<title>[root] azurerm_subnet_network_security_group_association.nsg&#45;link (expand)</title>
<polygon fill="none" stroke="black" points="1391.68,-396 933.68,-396 933.68,-360 1391.68,-360 1391.68,-396"/>
<text text-anchor="middle" x="1162.68" y="-374.3" font-family="Times,serif" font-size="14.00">azurerm_subnet_network_security_group_association.nsg&#45;link</text>
</g>
<!-- [root] azurerm_subnet_network_security_group_association.nsg&#45;link (expand)&#45;&gt;[root] azurerm_network_security_group.nsg1 (expand) -->
<g id="edge18" class="edge">
<title>[root] azurerm_subnet_network_security_group_association.nsg&#45;link (expand)&#45;&gt;[root] azurerm_network_security_group.nsg1 (expand)</title>
<path fill="none" stroke="black" d="M1136.75,-359.88C1123.02,-350.81 1105.98,-339.55 1091.15,-329.76"/>
<polygon fill="black" stroke="black" points="1092.99,-326.78 1082.71,-324.19 1089.13,-332.62 1092.99,-326.78"/>
</g>
<!-- [root] azurerm_subnet_network_security_group_association.nsg&#45;link (expand)&#45;&gt;[root] azurerm_subnet.subnet (expand) -->
<g id="edge19" class="edge">
<title>[root] azurerm_subnet_network_security_group_association.nsg&#45;link (expand)&#45;&gt;[root] azurerm_subnet.subnet (expand)</title>
<path fill="none" stroke="black" d="M1208.52,-359.87C1278.51,-333.72 1411.83,-283.9 1487.19,-255.74"/>
<polygon fill="black" stroke="black" points="1488.84,-258.86 1496.98,-252.08 1486.39,-252.3 1488.84,-258.86"/>
</g>
<!-- [root] azurerm_virtual_network.vnet (expand)&#45;&gt;[root] azurerm_resource_group.rg (expand) -->
<g id="edge20" class="edge">
<title>[root] azurerm_virtual_network.vnet (expand)&#45;&gt;[root] azurerm_resource_group.rg (expand)</title>
<path fill="none" stroke="black" d="M1543.49,-144.37C1466.58,-133.36 1366.04,-118.97 1288.75,-107.9"/>
<polygon fill="black" stroke="black" points="1288.88,-104.38 1278.49,-106.43 1287.89,-111.31 1288.88,-104.38"/>
</g>
<!-- [root] var.vm_network -->
<g id="node17" class="node">
<title>[root] var.vm_network</title>
<polygon fill="none" stroke="black" points="1718.68,-108 1594.68,-108 1594.68,-72 1724.68,-72 1724.68,-102 1718.68,-108"/>
<polyline fill="none" stroke="black" points="1718.68,-108 1718.68,-102 "/>
<polyline fill="none" stroke="black" points="1724.68,-102 1718.68,-102 "/>
<text text-anchor="middle" x="1659.68" y="-86.3" font-family="Times,serif" font-size="14.00">var.vm_network</text>
</g>
<!-- [root] azurerm_virtual_network.vnet (expand)&#45;&gt;[root] var.vm_network -->
<g id="edge21" class="edge">
<title>[root] azurerm_virtual_network.vnet (expand)&#45;&gt;[root] var.vm_network</title>
<path fill="none" stroke="black" d="M1659.68,-143.7C1659.68,-135.98 1659.68,-126.71 1659.68,-118.11"/>
<polygon fill="black" stroke="black" points="1663.18,-118.1 1659.68,-108.1 1656.18,-118.1 1663.18,-118.1"/>
</g>
<!-- [root] output.client_certificate (expand) -->
<g id="node21" class="node">
<title>[root] output.client_certificate (expand)</title>
<ellipse fill="none" stroke="black" cx="193.68" cy="-450" rx="193.87" ry="18"/>
<text text-anchor="middle" x="193.68" y="-446.3" font-family="Times,serif" font-size="14.00">[root] output.client_certificate (expand)</text>
</g>
<!-- [root] output.client_certificate (expand)&#45;&gt;[root] azurerm_kubernetes_cluster.aks&#45;cp2 (expand) -->
<g id="edge22" class="edge">
<title>[root] output.client_certificate (expand)&#45;&gt;[root] azurerm_kubernetes_cluster.aks&#45;cp2 (expand)</title>
<path fill="none" stroke="black" d="M201.59,-431.7C205.24,-423.73 209.64,-414.1 213.68,-405.26"/>
<polygon fill="black" stroke="black" points="216.89,-406.65 217.86,-396.1 210.52,-403.74 216.89,-406.65"/>
</g>
<!-- [root] output.kube_config (expand) -->
<g id="node22" class="node">
<title>[root] output.kube_config (expand)</title>
<ellipse fill="none" stroke="black" cx="576.68" cy="-450" rx="170.87" ry="18"/>
<text text-anchor="middle" x="576.68" y="-446.3" font-family="Times,serif" font-size="14.00">[root] output.kube_config (expand)</text>
</g>
<!-- [root] output.kube_config (expand)&#45;&gt;[root] azurerm_kubernetes_cluster.aks&#45;cp2 (expand) -->
<g id="edge23" class="edge">
<title>[root] output.kube_config (expand)&#45;&gt;[root] azurerm_kubernetes_cluster.aks&#45;cp2 (expand)</title>
<path fill="none" stroke="black" d="M500.52,-433.81C447.83,-423.3 377.34,-409.24 320.93,-398"/>
<polygon fill="black" stroke="black" points="321.43,-394.53 310.93,-396 320.06,-401.39 321.43,-394.53"/>
</g>
<!-- [root] output.pip (expand) -->
<g id="node23" class="node">
<title>[root] output.pip (expand)</title>
<ellipse fill="none" stroke="black" cx="1862.68" cy="-378" rx="131.08" ry="18"/>
<text text-anchor="middle" x="1862.68" y="-374.3" font-family="Times,serif" font-size="14.00">[root] output.pip (expand)</text>
</g>
<!-- [root] output.pip (expand)&#45;&gt;[root] azurerm_public_ip.pip (expand) -->
<g id="edge24" class="edge">
<title>[root] output.pip (expand)&#45;&gt;[root] azurerm_public_ip.pip (expand)</title>
<path fill="none" stroke="black" d="M1861.48,-359.87C1859.77,-335.67 1856.64,-291.21 1854.61,-262.39"/>
<polygon fill="black" stroke="black" points="1858.09,-261.92 1853.89,-252.19 1851.1,-262.41 1858.09,-261.92"/>
</g>
<!-- [root] output.resource_group_id (expand) -->
<g id="node24" class="node">
<title>[root] output.resource_group_id (expand)</title>
<ellipse fill="none" stroke="black" cx="1285.68" cy="-162" rx="202.26" ry="18"/>
<text text-anchor="middle" x="1285.68" y="-158.3" font-family="Times,serif" font-size="14.00">[root] output.resource_group_id (expand)</text>
</g>
<!-- [root] output.resource_group_id (expand)&#45;&gt;[root] azurerm_resource_group.rg (expand) -->
<g id="edge25" class="edge">
<title>[root] output.resource_group_id (expand)&#45;&gt;[root] azurerm_resource_group.rg (expand)</title>
<path fill="none" stroke="black" d="M1257.84,-144.05C1242.7,-134.84 1223.78,-123.32 1207.44,-113.37"/>
<polygon fill="black" stroke="black" points="1209.03,-110.24 1198.66,-108.03 1205.39,-116.22 1209.03,-110.24"/>
</g>
<!-- [root] output.vm_id (expand) -->
<g id="node25" class="node">
<title>[root] output.vm_id (expand)</title>
<ellipse fill="none" stroke="black" cx="1591.68" cy="-450" rx="143.77" ry="18"/>
<text text-anchor="middle" x="1591.68" y="-446.3" font-family="Times,serif" font-size="14.00">[root] output.vm_id (expand)</text>
</g>
<!-- [root] output.vm_id (expand)&#45;&gt;[root] azurerm_linux_virtual_machine.vm (expand) -->
<g id="edge26" class="edge">
<title>[root] output.vm_id (expand)&#45;&gt;[root] azurerm_linux_virtual_machine.vm (expand)</title>
<path fill="none" stroke="black" d="M1588.96,-431.7C1587.75,-423.98 1586.29,-414.71 1584.94,-406.11"/>
<polygon fill="black" stroke="black" points="1588.38,-405.44 1583.37,-396.1 1581.47,-406.53 1588.38,-405.44"/>
</g>
<!-- [root] provider[&quot;registry.terraform.io/hashicorp/azurerm&quot;] (close) -->
<g id="node26" class="node">
<title>[root] provider[&quot;registry.terraform.io/hashicorp/azurerm&quot;] (close)</title>
<ellipse fill="none" stroke="black" cx="1078.68" cy="-450" rx="313.04" ry="18"/>
<text text-anchor="middle" x="1078.68" y="-446.3" font-family="Times,serif" font-size="14.00">[root] provider[&quot;registry.terraform.io/hashicorp/azurerm&quot;] (close)</text>
</g>
<!-- [root] provider[&quot;registry.terraform.io/hashicorp/azurerm&quot;] (close)&#45;&gt;[root] azurerm_container_registry.acr (expand) -->
<g id="edge27" class="edge">
<title>[root] provider[&quot;registry.terraform.io/hashicorp/azurerm&quot;] (close)&#45;&gt;[root] azurerm_container_registry.acr (expand)</title>
<path fill="none" stroke="black" d="M945.33,-433.69C858.82,-423.65 743.37,-410.04 631.61,-396.11"/>
<polygon fill="black" stroke="black" points="631.86,-392.61 621.5,-394.84 630.99,-399.56 631.86,-392.61"/>
</g>
<!-- [root] provider[&quot;registry.terraform.io/hashicorp/azurerm&quot;] (close)&#45;&gt;[root] azurerm_kubernetes_cluster.aks&#45;cp2 (expand) -->
<g id="edge28" class="edge">
<title>[root] provider[&quot;registry.terraform.io/hashicorp/azurerm&quot;] (close)&#45;&gt;[root] azurerm_kubernetes_cluster.aks&#45;cp2 (expand)</title>
<path fill="none" stroke="black" d="M878.41,-436.12C739.68,-426.68 550.44,-412.78 374.77,-396.18"/>
<polygon fill="black" stroke="black" points="374.84,-392.67 364.55,-395.21 374.18,-399.64 374.84,-392.67"/>
</g>
<!-- [root] provider[&quot;registry.terraform.io/hashicorp/azurerm&quot;] (close)&#45;&gt;[root] azurerm_linux_virtual_machine.vm (expand) -->
<g id="edge29" class="edge">
<title>[root] provider[&quot;registry.terraform.io/hashicorp/azurerm&quot;] (close)&#45;&gt;[root] azurerm_linux_virtual_machine.vm (expand)</title>
<path fill="none" stroke="black" d="M1191.97,-433.2C1268.09,-422.59 1368.69,-408.56 1448.48,-397.43"/>
<polygon fill="black" stroke="black" points="1449.18,-400.87 1458.6,-396.02 1448.21,-393.94 1449.18,-400.87"/>
</g>
<!-- [root] provider[&quot;registry.terraform.io/hashicorp/azurerm&quot;] (close)&#45;&gt;[root] azurerm_network_security_rule.http (expand) -->
<g id="edge30" class="edge">
<title>[root] provider[&quot;registry.terraform.io/hashicorp/azurerm&quot;] (close)&#45;&gt;[root] azurerm_network_security_rule.http (expand)</title>
<path fill="none" stroke="black" d="M1007.35,-432.41C963.38,-422.18 906.8,-409.03 860.8,-398.33"/>
<polygon fill="black" stroke="black" points="861.39,-394.87 850.86,-396.02 859.8,-401.69 861.39,-394.87"/>
</g>
<!-- [root] provider[&quot;registry.terraform.io/hashicorp/azurerm&quot;] (close)&#45;&gt;[root] azurerm_subnet_network_security_group_association.nsg&#45;link (expand) -->
<g id="edge31" class="edge">
<title>[root] provider[&quot;registry.terraform.io/hashicorp/azurerm&quot;] (close)&#45;&gt;[root] azurerm_subnet_network_security_group_association.nsg&#45;link (expand)</title>
<path fill="none" stroke="black" d="M1099.45,-431.7C1109.92,-422.97 1122.79,-412.24 1134.18,-402.75"/>
<polygon fill="black" stroke="black" points="1136.72,-405.19 1142.16,-396.1 1132.23,-399.82 1136.72,-405.19"/>
</g>
<!-- [root] root -->
<g id="node27" class="node">
<title>[root] root</title>
<ellipse fill="none" stroke="black" cx="1248.68" cy="-522" rx="58.49" ry="18"/>
<text text-anchor="middle" x="1248.68" y="-518.3" font-family="Times,serif" font-size="14.00">[root] root</text>
</g>
<!-- [root] root&#45;&gt;[root] output.client_certificate (expand) -->
<g id="edge32" class="edge">
<title>[root] root&#45;&gt;[root] output.client_certificate (expand)</title>
<path fill="none" stroke="black" d="M1191.57,-517.87C1054.45,-510.27 695.81,-489.83 396.68,-468 378.29,-466.66 358.96,-465.16 339.84,-463.62"/>
<polygon fill="black" stroke="black" points="340.12,-460.13 329.87,-462.81 339.56,-467.11 340.12,-460.13"/>
</g>
<!-- [root] root&#45;&gt;[root] output.kube_config (expand) -->
<g id="edge33" class="edge">
<title>[root] root&#45;&gt;[root] output.kube_config (expand)</title>
<path fill="none" stroke="black" d="M1194.26,-515.33C1088.19,-504.28 851.31,-479.61 703.69,-464.23"/>
<polygon fill="black" stroke="black" points="703.97,-460.74 693.66,-463.19 703.24,-467.7 703.97,-460.74"/>
</g>
<!-- [root] root&#45;&gt;[root] output.pip (expand) -->
<g id="edge34" class="edge">
<title>[root] root&#45;&gt;[root] output.pip (expand)</title>
<path fill="none" stroke="black" d="M1306.37,-518.69C1419.47,-513.54 1666.16,-499.03 1744.68,-468 1781.4,-453.49 1816.61,-424.27 1838.85,-403.27"/>
<polygon fill="black" stroke="black" points="1841.4,-405.68 1846.16,-396.22 1836.54,-400.64 1841.4,-405.68"/>
</g>
<!-- [root] root&#45;&gt;[root] output.resource_group_id (expand) -->
<g id="edge35" class="edge">
<title>[root] root&#45;&gt;[root] output.resource_group_id (expand)</title>
<path fill="none" stroke="black" d="M1303.2,-515.36C1336.03,-509.09 1376.1,-495.88 1400.68,-468 1427.44,-437.67 1419.68,-419.45 1419.68,-379 1419.68,-379 1419.68,-379 1419.68,-305 1419.68,-250.64 1367.1,-208.66 1327.81,-184.88"/>
<polygon fill="black" stroke="black" points="1329.55,-181.85 1319.15,-179.8 1326,-187.88 1329.55,-181.85"/>
</g>
<!-- [root] root&#45;&gt;[root] output.vm_id (expand) -->
<g id="edge36" class="edge">
<title>[root] root&#45;&gt;[root] output.vm_id (expand)</title>
<path fill="none" stroke="black" d="M1296.02,-511.34C1351.17,-500.09 1443.24,-481.29 1510.01,-467.67"/>
<polygon fill="black" stroke="black" points="1510.98,-471.04 1520.08,-465.61 1509.58,-464.18 1510.98,-471.04"/>
</g>
<!-- [root] root&#45;&gt;[root] provider[&quot;registry.terraform.io/hashicorp/azurerm&quot;] (close) -->
<g id="edge37" class="edge">
<title>[root] root&#45;&gt;[root] provider[&quot;registry.terraform.io/hashicorp/azurerm&quot;] (close)</title>
<path fill="none" stroke="black" d="M1215.1,-507.17C1190.6,-497.08 1156.98,-483.24 1129.24,-471.82"/>
<polygon fill="black" stroke="black" points="1130.28,-468.46 1119.7,-467.89 1127.62,-474.94 1130.28,-468.46"/>
</g>
</g>
</svg>
